<?xml version="1.0" standalone="no"?><!DOCTYPE svg PUBLIC "-//W3C//DTD SVG 1.1//EN" "http://www.w3.org/Graphics/SVG/1.1/DTD/svg11.dtd"><svg t="1666156705565" class="icon" viewBox="0 0 1024 1024" version="1.1" xmlns="http://www.w3.org/2000/svg" p-id="2253" width="32" height="32" xmlns:xlink="http://www.w3.org/1999/xlink"><path d="M259.6352 527.36a286.8224 223.744 0 1 0 573.6448 0 286.8224 223.744 0 1 0-573.6448 0Z" fill="#ffe048" p-id="2254"></path><path d="M407.6032 429.9264m-40.4992 0a40.4992 40.4992 0 1 0 80.9984 0 40.4992 40.4992 0 1 0-80.9984 0Z" fill="#55524F" p-id="2255"></path><path d="M599.0912 429.9264m-40.4992 0a40.4992 40.4992 0 1 0 80.9984 0 40.4992 40.4992 0 1 0-80.9984 0Z" fill="#55524F" p-id="2256"></path><path d="M467.5072 865.4848c-93.8496 0-188.416-23.3472-280.1152-52.0704-5.8368-1.8432-10.5472-6.144-12.8512-11.8272s-1.9456-12.032 0.9216-17.408c34.8672-64.768 20.992-127.3856 4.9664-199.936-5.8368-26.5216-11.9296-53.9136-15.9232-82.944-15.5136-112.384 26.0096-223.232 108.4416-289.3312 76.2368-61.184 175.616-89.6512 272.64-78.0288 95.488 11.4176 179.968 59.136 237.9264 134.2976 63.8976 82.8928 90.2144 192.768 72.192 301.5168-15.7696 95.3344-63.1296 175.4624-129.8944 219.8016-83.5584 55.5008-170.6496 75.9296-258.304 75.9296z m-245.4528-84.2752c183.808 55.1936 337.0496 69.9392 481.0752-25.7536 57.344-38.0928 98.2528-108.1856 112.1792-192.3584 16.128-97.5872-7.2704-195.9424-64.2048-269.824-51.2-66.4064-125.9008-108.544-210.3808-118.6304-86.1696-10.2912-174.3872 14.9504-242.1248 69.2736-71.2704 57.1392-107.1104 153.6-93.5424 251.7504 3.7888 27.392 9.6768 53.9648 15.36 79.7184 15.4112 69.7344 30.0544 135.9872 1.6384 205.824z" fill="#55524F" p-id="2257"></path><path d="M507.392 673.3312c-69.2736 0-104.6528-54.272-113.664-82.9952-3.3792-10.8032 2.6112-22.272 13.4144-25.7024a20.48 20.48 0 0 1 25.6512 13.312c0.8192 2.4576 18.5856 54.3744 74.5984 54.3744 56.3712 0 71.8336-53.1456 71.9872-53.6576a20.49024 20.49024 0 0 1 39.4752 11.008c-8.0896 28.9792-41.7792 83.6608-111.4624 83.6608z" fill="#55524F" p-id="2258"></path></svg>