<?xml version="1.0" standalone="no"?><!DOCTYPE svg PUBLIC "-//W3C//DTD SVG 1.1//EN" "http://www.w3.org/Graphics/SVG/1.1/DTD/svg11.dtd"><svg t="1666156726688" class="icon" viewBox="0 0 1024 1024" version="1.1" xmlns="http://www.w3.org/2000/svg" p-id="2509" width="32" height="32" xmlns:xlink="http://www.w3.org/1999/xlink"><path d="M575.4368 204.9024l106.5472 215.8592c2.2016 4.4544 6.4 7.5264 11.3152 8.2432l238.1824 34.6112c12.3392 1.792 17.2544 16.9472 8.3456 25.6512l-172.3392 168.0384c-3.5328 3.4304-5.1712 8.448-4.3008 13.312L803.84 907.776c2.0992 12.288-10.8032 21.6576-21.8112 15.8208l-213.0432-112.0256a15.0016 15.0016 0 0 0-13.9776 0l-213.0432 112.0256c-11.008 5.7856-23.9104-3.584-21.8112-15.8208l40.704-237.2608c0.8192-4.864-0.768-9.8304-4.3008-13.312L184.1152 489.216c-8.9088-8.704-3.9936-23.8592 8.3456-25.6512l238.1824-34.6112c4.9152-0.7168 9.1136-3.7888 11.3152-8.2432l106.5472-215.8592c5.4784-11.1104 21.4016-11.1104 26.9312 0.0512z" fill="#ffe048" p-id="2510"></path><path d="M276.0192 901.4272c-6.0928 0-12.1344-1.8944-17.2544-5.632a29.32736 29.32736 0 0 1-11.7248-28.7744l42.1376-245.6576-178.4832-174.0288a29.18912 29.18912 0 0 1-7.424-30.208c3.4816-10.752 12.5952-18.3808 23.7568-20.0192l246.6304-35.84 110.2848-223.488a29.21984 29.21984 0 0 1 26.4192-16.4352c11.3152 0 21.4016 6.2976 26.4192 16.4352l110.2848 223.488 246.6304 35.84c11.1616 1.6384 20.2752 9.2672 23.7568 20.0192 3.4816 10.752 0.6656 22.3232-7.424 30.208l-186.2144 181.504a20.52096 20.52096 0 0 1-28.9792-0.3584 20.52096 20.52096 0 0 1 0.3584-28.9792l169.472-165.1712-229.5296-33.3824a29.3376 29.3376 0 0 1-22.1696-16.128L510.3616 176.8448 407.7056 384.8704a29.46048 29.46048 0 0 1-22.1696 16.128l-229.5296 33.3312 166.0928 161.8944a29.59872 29.59872 0 0 1 8.4992 26.0096l-39.2192 228.6592L496.64 742.9632a29.44 29.44 0 0 1 27.392 0l184.1664 96.8192-166.912-320.8704c-5.2224-10.0352-1.3312-22.4256 8.704-27.5968 10.0352-5.2224 22.4256-1.3312 27.5968 8.704l183.8592 353.4848c5.9904 11.4688 3.84 25.344-5.3248 34.4576s-23.04 11.2128-34.4576 5.1712l-211.3536-111.104-220.6208 115.968c-4.3008 2.304-9.0112 3.4304-13.6704 3.4304z m449.1776-29.0304zM379.648 360.448c-0.0512 0-0.0512 0 0 0z m261.376 0z" fill="#55524F" p-id="2511"></path></svg>